<?xml version="1.0" encoding="UTF-8" standalone="no"?>
<svg width="90px" height="90px" viewBox="0 0 90 90" version="1.1" xmlns="http://www.w3.org/2000/svg" xmlns:xlink="http://www.w3.org/1999/xlink">
    <!-- Generator: Sketch 39.1 (31720) - http://www.bohemiancoding.com/sketch -->
    <title>noun_287053_cc</title>
    <desc>Created with Sketch.</desc>
    <defs></defs>
    <g id="Page-1" stroke="none" stroke-width="1" fill="none" fill-rule="evenodd">
        <g id="Skills" transform="translate(-1258.000000, -729.000000)" fill="#863837">
            <g id="noun_287053_cc" transform="translate(1258.000000, 729.000000)">
                <g id="Group">
                    <path d="M81.6,29.291 C81.109,27.382 79.855,25.8 78.109,24.873 L48.109,9.6 C47.127,9.109 46.036,8.836 45,8.836 C43.909,8.836 42.873,9.109 41.891,9.6 L11.891,24.873 C10.146,25.8 8.891,27.382 8.4,29.291 L41.018,52.746 C42.218,53.564 43.582,54 45,54 C46.418,54 47.782,53.564 48.982,52.745 L81.6,29.291 L81.6,29.291 Z M81.818,74.345 L81.818,39.164 L53.727,59.345 C51.163,61.254 48.054,62.181 45,62.181 C41.946,62.181 38.836,61.254 36.218,59.345 L8.182,39.218 L8.182,74.345 C8.182,78.109 11.237,81.163 15,81.163 L75,81.163 C78.764,81.164 81.818,78.109 81.818,74.345 L81.818,74.345 Z M90,31.2 L90,74.345 C90,82.636 83.291,89.345 75,89.345 L15,89.345 C6.709,89.345 0,82.636 0,74.345 L0.055,30.6 C0.164,25.091 3.273,20.127 8.182,17.618 L38.182,2.291 C40.309,1.2 42.655,0.655 45,0.655 C47.345,0.655 49.636,1.2 51.818,2.291 L81.818,17.618 C86.836,20.182 90,25.309 90,30.982 L90,31.2 L90,31.2 Z" id="Shape"></path>
                </g>
            </g>
        </g>
    </g>
</svg>
