<?xml version="1.0" encoding="UTF-8" standalone="no"?>
<svg width="105px" height="98px" viewBox="0 0 105 98" version="1.1" xmlns="http://www.w3.org/2000/svg" xmlns:xlink="http://www.w3.org/1999/xlink">
    <!-- Generator: Sketch 39.1 (31720) - http://www.bohemiancoding.com/sketch -->
    <title>noun_367596_cc</title>
    <desc>Created with Sketch.</desc>
    <defs></defs>
    <g id="Page-1" stroke="none" stroke-width="1" fill="none" fill-rule="evenodd">
        <g id="Skills" transform="translate(-1117.000000, -759.000000)" fill="#2C8170">
            <g id="noun_367596_cc" transform="translate(1117.000000, 759.000000)">
                <g id="Group">
                    <g transform="translate(0.097696, 0.000000)">
                        <rect id="Rectangle-path" x="31.081447" y="56.1289574" width="11.1024498" height="11.0135041"></rect>
                        <path d="M102.85504,41.0224634 L56.2581241,1.7495336 C54.1226556,-0.0478228228 50.9999054,-0.0478228228 48.8624504,1.7495336 L2.26752074,41.0224634 C-0.142082335,43.0491854 -0.442041167,46.641921 1.60006267,49.0403735 C3.63819355,51.4408033 7.24763195,51.7393741 9.65922151,49.7086974 L10.4041524,49.0799193 L10.4041524,94.3064687 C10.4041524,96.2699174 12.0032707,97.8616357 13.9778341,97.8616357 L91.1467134,97.8616357 C93.1212768,97.8616357 94.7203951,96.2699174 94.7203951,94.3064687 L94.7203951,49.077942 L95.4692989,49.7067202 C96.5400129,50.6103416 97.8550642,51.0552318 99.1581966,51.0552318 C100.781153,51.0552318 102.394176,50.3710895 103.524485,49.0383962 C105.566589,46.641921 105.264643,43.0491854 102.85504,41.0224634 L102.85504,41.0224634 Z M87.5730316,90.747347 L74.041114,90.747347 L74.041114,56.1289574 L54.3709659,56.1289574 L54.3709659,90.747347 L17.5495293,90.747347 L17.5495293,43.0570946 L52.5612805,13.5519764 L87.5730316,43.05314 L87.5730316,90.747347 L87.5730316,90.747347 Z" id="Shape"></path>
                    </g>
                </g>
            </g>
        </g>
    </g>
</svg>
