<?xml version="1.0" encoding="UTF-8" standalone="no"?>
<svg width="80px" height="80px" viewBox="0 0 80 80" version="1.1" xmlns="http://www.w3.org/2000/svg" xmlns:xlink="http://www.w3.org/1999/xlink">
    <!-- Generator: Sketch 39.1 (31720) - http://www.bohemiancoding.com/sketch -->
    <title>noun_223963_cc</title>
    <desc>Created with Sketch.</desc>
    <defs></defs>
    <g id="Page-1" stroke="none" stroke-width="1" fill="none" fill-rule="evenodd">
        <g id="Skills" transform="translate(-861.000000, -751.000000)" fill="#826B04">
            <g id="noun_223963_cc" transform="translate(861.000000, 751.000000)">
                <g id="Group">
                    <path d="M76.3635556,58.1822222 L56.3635556,38.1822222 L65.4542222,29.0915556 L69.0906667,25.4551111 L72.7253333,21.8204444 C76.7431111,17.8026667 76.7422222,11.2897778 72.7244444,7.27377778 C68.7075556,3.25866667 62.1964444,3.25866667 58.1804444,7.27466667 L54.5457778,10.9093333 L50.9093333,14.5457778 L41.8177778,23.6364444 L21.8177778,3.63644444 L18.1813333,0 L14.5448889,3.63644444 L3.63644444,14.5457778 L0,18.1813333 L3.63644444,21.8177778 L8.18133333,26.3626667 L10,28.1813333 L15.4542222,33.6355556 L17.2728889,35.4533333 L22.7271111,40.9075556 L23.6364444,41.8168889 L14.5457778,50.9093333 L11.5608889,54.3644444 C10.3111111,55.8115556 9.35644444,57.4897778 8.752,59.3031111 L6.03111111,67.4648889 L2.77777778,77.2222222 L12.5351111,73.9697778 L20.6968889,71.2497778 C22.5111111,70.6453333 24.1893333,69.6906667 25.6364444,68.44 L29.0915556,65.4551111 L38.1822222,56.3644444 L39.0915556,57.2737778 L44.5457778,62.728 L46.3635556,64.5466667 L51.8177778,70.0008889 L53.6364444,71.8195556 L58.1813333,76.3644444 L61.8186667,80 L65.4551111,76.3635556 L76.3644444,65.4542222 L80,61.8186667 L76.3635556,58.1822222 L76.3635556,58.1822222 Z M61.8186667,10.9093333 C63.8266667,8.90044444 67.0826667,8.90044444 69.0915556,10.9093333 C71.1004444,12.9173333 71.1004444,16.1733333 69.0915556,18.1822222 L65.4551111,21.8186667 L58.1822222,14.5457778 L61.8186667,10.9093333 L61.8186667,10.9093333 Z M54.5448889,18.1813333 L54.6968889,18.3333333 L61.8177778,25.4542222 L52.7271111,34.5457778 L45.4542222,27.2728889 L54.5448889,18.1813333 L54.5448889,18.1813333 Z M10.9084444,69.0915556 L14.5448889,58.1822222 L21.8177778,65.4551111 L10.9084444,69.0915556 L10.9084444,69.0915556 Z M25.4542222,61.8186667 L18.1813333,54.5457778 L27.272,45.4551111 L29.9991111,48.1822222 L31.8168889,50 L34.544,52.7271111 L25.4542222,61.8186667 L25.4542222,61.8186667 Z M61.8186667,72.7271111 L57.2728889,68.1813333 L64.5457778,60.9084444 L62.7271111,59.0897778 L55.4542222,66.3626667 L50,60.9084444 L53.6364444,57.272 L51.8177778,55.4533333 L48.1813333,59.0897778 L42.7271111,53.6355556 L46.3635556,49.9991111 L44.5457778,48.1813333 L40.9093333,51.8177778 L35.4551111,46.3635556 L42.728,39.0906667 L40.9102222,37.2728889 L33.6373333,44.5457778 L28.1831111,39.0915556 L31.8195556,35.4551111 L30.0017778,33.6373333 L26.3653333,37.2737778 L20.9111111,31.8195556 L24.5475556,28.1831111 L22.7288889,26.3644444 L19.0924444,30.0008889 L13.6382222,24.5466667 L20.9111111,17.2737778 L19.0924444,15.4551111 L11.8195556,22.728 L7.27377778,18.1822222 L18.1831111,7.27377778 L72.728,61.8186667 L61.8186667,72.7271111 L61.8186667,72.7271111 Z" id="Shape"></path>
                </g>
            </g>
        </g>
    </g>
</svg>
