<?xml version="1.0" encoding="UTF-8" standalone="no"?>
<svg width="74px" height="65px" viewBox="0 0 74 65" version="1.1" xmlns="http://www.w3.org/2000/svg" xmlns:xlink="http://www.w3.org/1999/xlink">
    <!-- Generator: Sketch 39.1 (31720) - http://www.bohemiancoding.com/sketch -->
    <title>noun_367790_cc</title>
    <desc>Created with Sketch.</desc>
    <defs></defs>
    <g id="Page-1" stroke="none" stroke-width="1" fill="none" fill-rule="evenodd">
        <g id="Desktop-HD" transform="translate(-1042.000000, -310.000000)" fill="#154A71">
            <g id="noun_367790_cc" transform="translate(1042.000000, 310.000000)">
                <path d="M25.3438444,34.7928672 L25.3438444,30.259319 C25.3438444,28.4458997 26.7945799,26.9951642 28.6079992,26.9951642 L70.3166432,26.9951642 C72.1300625,26.9951642 73.5807979,28.4458997 73.5807979,30.259319 L73.5807979,34.7928672 C73.5807979,36.6062865 72.1300625,38.057022 70.3166432,38.057022 L28.6079992,38.057022 C26.7945799,38.057022 25.3438444,36.6062865 25.3438444,34.7928672 L25.3438444,34.7928672 Z M28.6079992,13.8478743 L70.3166432,13.8478743 C72.1300625,13.8478743 73.5807979,12.3971388 73.5807979,10.5837195 L73.5807979,6.05017127 C73.5807979,4.23675196 72.1300625,2.78601652 70.3166432,2.78601652 L28.6079992,2.78601652 C26.7945799,2.78601652 25.3438444,4.23675196 25.3438444,6.05017127 L25.3438444,10.5837195 C25.3438444,12.3971388 26.7945799,13.8478743 28.6079992,13.8478743 L28.6079992,13.8478743 Z M28.6079992,62.3568406 L70.3166432,62.3568406 C72.1300625,62.3568406 73.5807979,60.9061052 73.5807979,59.0926859 L73.5807979,54.5591376 C73.5807979,52.7457183 72.1300625,51.2949829 70.3166432,51.2949829 L28.6079992,51.2949829 C26.7945799,51.2949829 25.3438444,52.7457183 25.3438444,54.5591376 L25.3438444,59.0926859 C25.3438444,60.9061052 26.7945799,62.3568406 28.6079992,62.3568406 L28.6079992,62.3568406 Z M4.30818054,16.2053194 L12.4685674,16.2053194 C14.5539996,16.2053194 16.2767479,14.482571 16.2767479,12.3971388 L16.2767479,4.23675196 C16.2767479,2.15131977 14.5539996,0.428571429 12.4685674,0.428571429 L4.30818054,0.428571429 C2.22274834,0.428571429 0.5,2.15131977 0.5,4.23675196 L0.5,12.3971388 C0.5,14.482571 2.22274834,16.2053194 4.30818054,16.2053194 L4.30818054,16.2053194 Z M4.30818054,40.505138 L12.4685674,40.505138 C14.5539996,40.505138 16.2767479,38.7823897 16.2767479,36.6969575 L16.2767479,28.5365706 C16.2767479,26.4511384 14.5539996,24.7283901 12.4685674,24.7283901 L4.30818054,24.7283901 C2.22274834,24.7283901 0.5,26.4511384 0.5,28.5365706 L0.5,36.6969575 C0.5,38.7823897 2.22274834,40.505138 4.30818054,40.505138 L4.30818054,40.505138 Z M4.30818054,64.7142857 L12.4685674,64.7142857 C14.5539996,64.7142857 16.2767479,62.9915374 16.2767479,60.9061052 L16.2767479,52.7457183 C16.2767479,50.6602861 14.5539996,48.9375378 12.4685674,48.9375378 L4.30818054,48.9375378 C2.22274834,48.9375378 0.5,50.6602861 0.5,52.7457183 L0.5,60.9061052 C0.5,62.9915374 2.22274834,64.7142857 4.30818054,64.7142857 L4.30818054,64.7142857 Z" id="Shape"></path>
            </g>
        </g>
    </g>
</svg>
