<?xml version="1.0" encoding="UTF-8" standalone="no"?>
<svg width="80px" height="70px" viewBox="0 0 80 70" version="1.1" xmlns="http://www.w3.org/2000/svg" xmlns:xlink="http://www.w3.org/1999/xlink">
    <!-- Generator: Sketch 39.1 (31720) - http://www.bohemiancoding.com/sketch -->
    <title>noun_367790_cc</title>
    <desc>Created with Sketch.</desc>
    <defs></defs>
    <g id="Page-1" stroke="none" stroke-width="1" fill="none" fill-rule="evenodd">
        <g id="Desktop-HD" transform="translate(-1042.000000, -310.000000)" fill="#154A71">
            <g id="noun_367790_cc" transform="translate(1042.000000, 310.000000)">
                <path d="M27.2933709,37.4692416 L27.2933709,32.5869589 C27.2933709,30.6340458 28.8557014,29.0717153 30.8086145,29.0717153 L75.7256157,29.0717153 C77.6785288,29.0717153 79.2408593,30.6340458 79.2408593,32.5869589 L79.2408593,37.4692416 C79.2408593,39.4221547 77.6785288,40.9844852 75.7256157,40.9844852 L30.8086145,40.9844852 C28.8557014,40.9844852 27.2933709,39.4221547 27.2933709,37.4692416 L27.2933709,37.4692416 Z M30.8086145,14.9130954 L75.7256157,14.9130954 C77.6785288,14.9130954 79.2408593,13.3507649 79.2408593,11.3978518 L79.2408593,6.51556906 C79.2408593,4.56265596 77.6785288,3.00032549 75.7256157,3.00032549 L30.8086145,3.00032549 C28.8557014,3.00032549 27.2933709,4.56265596 27.2933709,6.51556906 L27.2933709,11.3978518 C27.2933709,13.3507649 28.8557014,14.9130954 30.8086145,14.9130954 L30.8086145,14.9130954 Z M30.8086145,67.1535207 L75.7256157,67.1535207 C77.6785288,67.1535207 79.2408593,65.5911902 79.2408593,63.6382771 L79.2408593,58.7559944 C79.2408593,56.8030813 77.6785288,55.2407508 75.7256157,55.2407508 L30.8086145,55.2407508 C28.8557014,55.2407508 27.2933709,56.8030813 27.2933709,58.7559944 L27.2933709,63.6382771 C27.2933709,65.5911902 28.8557014,67.1535207 30.8086145,67.1535207 L30.8086145,67.1535207 Z M4.63957904,17.4518824 L13.427688,17.4518824 C15.673538,17.4518824 17.5288055,15.596615 17.5288055,13.3507649 L17.5288055,4.56265596 C17.5288055,2.3168059 15.673538,0.461538462 13.427688,0.461538462 L4.63957904,0.461538462 C2.39372898,0.461538462 0.538461538,2.3168059 0.538461538,4.56265596 L0.538461538,13.3507649 C0.538461538,15.596615 2.39372898,17.4518824 4.63957904,17.4518824 L4.63957904,17.4518824 Z M4.63957904,43.6209179 L13.427688,43.6209179 C15.673538,43.6209179 17.5288055,41.7656504 17.5288055,39.5198004 L17.5288055,30.7316914 C17.5288055,28.4858414 15.673538,26.6305739 13.427688,26.6305739 L4.63957904,26.6305739 C2.39372898,26.6305739 0.538461538,28.4858414 0.538461538,30.7316914 L0.538461538,39.5198004 C0.538461538,41.7656504 2.39372898,43.6209179 4.63957904,43.6209179 L4.63957904,43.6209179 Z M4.63957904,69.6923077 L13.427688,69.6923077 C15.673538,69.6923077 17.5288055,67.8370403 17.5288055,65.5911902 L17.5288055,56.8030813 C17.5288055,54.5572312 15.673538,52.7019638 13.427688,52.7019638 L4.63957904,52.7019638 C2.39372898,52.7019638 0.538461538,54.5572312 0.538461538,56.8030813 L0.538461538,65.5911902 C0.538461538,67.8370403 2.39372898,69.6923077 4.63957904,69.6923077 L4.63957904,69.6923077 Z" id="Shape"></path>
            </g>
        </g>
    </g>
</svg>
