<?xml version="1.0" encoding="UTF-8" standalone="no"?>
<svg width="108px" height="108px" viewBox="0 0 108 108" version="1.1" xmlns="http://www.w3.org/2000/svg" xmlns:xlink="http://www.w3.org/1999/xlink">
    <!-- Generator: Sketch 39.1 (31720) - http://www.bohemiancoding.com/sketch -->
    <title>Shape</title>
    <desc>Created with Sketch.</desc>
    <defs>
        <filter x="-50%" y="-50%" width="200%" height="200%" filterUnits="objectBoundingBox" id="filter-1">
            <feOffset dx="2" dy="2" in="SourceAlpha" result="shadowOffsetOuter1"></feOffset>
            <feGaussianBlur stdDeviation="2" in="shadowOffsetOuter1" result="shadowBlurOuter1"></feGaussianBlur>
            <feColorMatrix values="0 0 0 0 0   0 0 0 0 0   0 0 0 0 0  0 0 0 0.680621603 0" type="matrix" in="shadowBlurOuter1" result="shadowMatrixOuter1"></feColorMatrix>
            <feMerge>
                <feMergeNode in="shadowMatrixOuter1"></feMergeNode>
                <feMergeNode in="SourceGraphic"></feMergeNode>
            </feMerge>
        </filter>
    </defs>
    <g id="Page-1" stroke="none" stroke-width="1" fill="none" fill-rule="evenodd">
        <g id="Desktop-HD-Copy" transform="translate(-194.000000, -1264.000000)" fill="#FFFFFF">
            <g id="Group-2" transform="translate(21.000000, 1211.000000)">
                <g id="noun_223963_cc" filter="url(#filter-1)" transform="translate(175.000000, 55.000000)">
                    <g id="Group">
                        <path d="M95.4544444,72.7277778 L70.4544444,47.7277778 L81.8177778,36.3644444 L86.3633333,31.8188889 L90.9066667,27.2755556 C95.9288889,22.2533333 95.9277778,14.1122222 90.9055556,9.09222222 C85.8844444,4.07333333 77.7455556,4.07333333 72.7255556,9.09333333 L68.1822222,13.6366667 L63.6366667,18.1822222 L52.2722222,29.5455556 L27.2722222,4.54555556 L22.7266667,0 L18.1811111,4.54555556 L4.54555556,18.1822222 L0,22.7266667 L4.54555556,27.2722222 L10.2266667,32.9533333 L12.5,35.2266667 L19.3177778,42.0444444 L21.5911111,44.3166667 L28.4088889,51.1344444 L29.5455556,52.2711111 L18.1822222,63.6366667 L14.4511111,67.9555556 C12.8888889,69.7644444 11.6955556,71.8622222 10.94,74.1288889 L7.53888889,84.3311111 L3.47222222,96.5277778 L15.6688889,92.4622222 L25.8711111,89.0622222 C28.1388889,88.3066667 30.2366667,87.1133333 32.0455556,85.55 L36.3644444,81.8188889 L47.7277778,70.4555556 L48.8644444,71.5922222 L55.6822222,78.41 L57.9544444,80.6833333 L64.7722222,87.5011111 L67.0455556,89.7744444 L72.7266667,95.4555556 L77.2733333,100 L81.8188889,95.4544444 L95.4555556,81.8177778 L100,77.2733333 L95.4544444,72.7277778 L95.4544444,72.7277778 Z M77.2733333,13.6366667 C79.7833333,11.1255556 83.8533333,11.1255556 86.3644444,13.6366667 C88.8755556,16.1466667 88.8755556,20.2166667 86.3644444,22.7277778 L81.8188889,27.2733333 L72.7277778,18.1822222 L77.2733333,13.6366667 L77.2733333,13.6366667 Z M68.1811111,22.7266667 L68.3711111,22.9166667 L77.2722222,31.8177778 L65.9088889,43.1822222 L56.8177778,34.0911111 L68.1811111,22.7266667 L68.1811111,22.7266667 Z M13.6355556,86.3644444 L18.1811111,72.7277778 L27.2722222,81.8188889 L13.6355556,86.3644444 L13.6355556,86.3644444 Z M31.8177778,77.2733333 L22.7266667,68.1822222 L34.09,56.8188889 L37.4988889,60.2277778 L39.7711111,62.5 L43.18,65.9088889 L31.8177778,77.2733333 L31.8177778,77.2733333 Z M77.2733333,90.9088889 L71.5911111,85.2266667 L80.6822222,76.1355556 L78.4088889,73.8622222 L69.3177778,82.9533333 L62.5,76.1355556 L67.0455556,71.59 L64.7722222,69.3166667 L60.2266667,73.8622222 L53.4088889,67.0444444 L57.9544444,62.4988889 L55.6822222,60.2266667 L51.1366667,64.7722222 L44.3188889,57.9544444 L53.41,48.8633333 L51.1377778,46.5911111 L42.0466667,55.6822222 L35.2288889,48.8644444 L39.7744444,44.3188889 L37.5022222,42.0466667 L32.9566667,46.5922222 L26.1388889,39.7744444 L30.6844444,35.2288889 L28.4111111,32.9555556 L23.8655556,37.5011111 L17.0477778,30.6833333 L26.1388889,21.5922222 L23.8655556,19.3188889 L14.7744444,28.41 L9.09222222,22.7277778 L22.7288889,9.09222222 L90.91,77.2733333 L77.2733333,90.9088889 L77.2733333,90.9088889 Z" id="Shape"></path>
                    </g>
                </g>
            </g>
        </g>
    </g>
</svg>
